<svg xmlns="http://www.w3.org/2000/svg" viewBox="0 0 128 128">
  <path fill="#FFF" d="M55.8 89.4A22 22 0 0038 54.5a22 22 0 00-17.8 34.9l.3.5L38 113.5l17.5-23.7.3-.4z"/>
  <path fill="#454B54" d="M38 116.5c-1 0-1.8-.5-2.4-1.2L18.1 91.6l-.4-.5a25 25 0 1140.6-.1l-.1.1-.3.4-17.5 23.7a3 3 0 01-2.4 1.3zm0-59a19 19 0 00-15.4 30.1l.3.4L38 108.5l15.3-20.8v-.1c2.4-3.3 3.6-7.1 3.6-11.1.1-10.5-8.4-19-18.9-19zm74 59h-1a3 3 0 01-3-3v-.1a3 3 0 01.6-3.6 3 3 0 014.2.2l1.4 1.5c.8.9 1 2.1.5 3.2a2.8 2.8 0 01-2.7 1.8zm-13 0h-3c-1.7 0-3-1.3-3-3s1.3-3 3-3h3c1.7 0 3 1.3 3 3s-1.3 3-3 3zm-15 0h-3c-1.7 0-3-1.3-3-3s1.3-3 3-3h3c1.7 0 3 1.3 3 3s-1.3 3-3 3zm-15 0h-3c-1.7 0-3-1.3-3-3s1.3-3 3-3h3c1.7 0 3 1.3 3 3s-1.3 3-3 3zm-15 0h-3c-1.7 0-3-1.3-3-3s1.3-3 3-3h3c1.7 0 3 1.3 3 3s-1.3 3-3 3zm48.5-10.3c-.8 0-1.6-.3-2.2-1l-2-2.2a3 3 0 01.2-4.2 3 3 0 014.2.2l2 2.2a3 3 0 01-2.2 5zm-10.1-11c-.8 0-1.6-.3-2.2-1l-2-2.2a3 3 0 01.2-4.2 3 3 0 014.2.2l2 2.2a3 3 0 01-2.2 5zM82.2 84.1c-.8 0-1.6-.3-2.2-1L78 81a3 3 0 01.2-4.2 3 3 0 014.2.2l2 2.2a3 3 0 01-.2 4.2c-.5.5-1.3.7-2 .7zm-.5-11.5a3 3 0 01-2.4-4.8l1.8-2.4a3 3 0 014.2-.6 3 3 0 01.6 4.2l-1.8 2.4a3 3 0 01-2.4 1.2zm9-12a3 3 0 01-2.4-4.8l1.8-2.4a3 3 0 014.2-.6 3 3 0 01.6 4.2l-1.8 2.4a3 3 0 01-2.4 1.2z"/>
  <path fill="#1BA5D0" d="M38 66.5a10 10 0 100 20 10 10 0 100-20z"/>
  <path fill="#E780B3" d="M89.5 14.9c3 0 5.7 1.3 7.5 3.3a9.8 9.8 0 017.5-3.3 10 10 0 0110 9.8c0 3.1-1.4 5.8-3.7 7.6L97 43 83.4 32.5a9.7 9.7 0 01-3.9-7.8 10 10 0 0110-9.8z"/>
  <path fill="#454B54" d="M97 46a3 3 0 01-1.8-.6L81.6 34.9a12.6 12.6 0 01-5.1-10.1c0-7.1 5.8-12.8 13-12.8 2.7 0 5.3.8 7.5 2.3 2.2-1.5 4.8-2.3 7.5-2.3a13 13 0 0113 12.8c0 3.8-1.7 7.5-4.8 9.9L98.8 45.4a3 3 0 01-1.8.6zm-7.5-28.1a7 7 0 00-7 6.8c0 2.1 1 4.1 2.7 5.4L97 39.2l12-9.3a6.7 6.7 0 002.5-5.2 7 7 0 00-7-6.8c-2 0-3.9.9-5.2 2.3-.6.6-1.4 1-2.2 1-.9 0-1.7-.4-2.2-1a7.3 7.3 0 00-5.4-2.3z"/>
</svg>