<svg xmlns="http://www.w3.org/2000/svg" viewBox="0 0 100 100"><path fill="#00a5a5" d="M13 27A2 2 0 1 0 13 31A2 2 0 1 0 13 27Z"/><path fill="#f1bc19" d="M77 12A1 1 0 1 0 77 14A1 1 0 1 0 77 12Z"/><path fill="#c0e5e4" d="M50 13A37 37 0 1 0 50 87A37 37 0 1 0 50 13Z"/><path fill="#f1bc19" d="M83 11A4 4 0 1 0 83 19A4 4 0 1 0 83 11Z"/><path fill="#00a5a5" d="M87 22A2 2 0 1 0 87 26A2 2 0 1 0 87 22Z"/><path fill="#fbcd59" d="M81 74A2 2 0 1 0 81 78 2 2 0 1 0 81 74zM15 59A4 4 0 1 0 15 67 4 4 0 1 0 15 59z"/><path fill="#00a5a5" d="M25 85A2 2 0 1 0 25 89A2 2 0 1 0 25 85Z"/><path fill="#fff" d="M18.5 51A2.5 2.5 0 1 0 18.5 56A2.5 2.5 0 1 0 18.5 51Z"/><path fill="#f1bc19" d="M21 66A1 1 0 1 0 21 68A1 1 0 1 0 21 66Z"/><path fill="#fff" d="M80 33A1 1 0 1 0 80 35A1 1 0 1 0 80 33Z"/><g><path fill="#fdfcef" d="M56.086,27L56.086,27L68,38.914V69c0,2.206-1.794,4-4,4H36c-2.206,0-4-1.794-4-4V31 c0-2.206,1.794-4,4-4H56.086"/><path fill="#f6cca4" d="M55.375,26.5v8.127c0,2.761,2.237,4.999,4.998,5L68.5,39.63L55.375,26.5z"/><path fill="#472b29" d="M55.42,27.4L67.6,39.58V69c0,1.985-1.615,3.6-3.6,3.6H36c-1.985,0-3.6-1.615-3.6-3.6V31 c0-1.985,1.615-3.6,3.6-3.6H55.42 M55.586,26H36c-2.761,0-5,2.239-5,5v38c0,2.761,2.239,5,5,5h28c2.761,0,5-2.239,5-5V39.414 c0-0.265-0.105-0.52-0.293-0.707L56.293,26.293C56.105,26.105,55.851,26,55.586,26L55.586,26z"/><path fill="#472b29" d="M64.625 55c-.207 0-.375-.168-.375-.375v-3.25c0-.207.168-.375.375-.375S65 51.168 65 51.375v3.25C65 54.832 64.832 55 64.625 55zM64.625 50c-.207 0-.375-.168-.375-.375v-2.25c0-.207.168-.375.375-.375S65 47.168 65 47.375v2.25C65 49.832 64.832 50 64.625 50zM61.625 70h-23.25C36.514 70 35 68.486 35 66.625v-32.25c0-.825.311-1.624.875-2.251.137-.154.374-.167.529-.028.154.139.166.375.027.53-.439.489-.682 1.11-.682 1.749v32.25c0 1.447 1.178 2.625 2.625 2.625h23.25c1.447 0 2.625-1.178 2.625-2.625v-10.25c0-.207.168-.375.375-.375S65 56.168 65 56.375v10.25C65 68.486 63.486 70 61.625 70zM60 39.25c-2.343 0-4.25-1.907-4.25-4.25v-8H55v8c0 2.761 2.239 5 5 5h8v-.75H60z"/></g><g><path fill="#bd977c" d="M44 50.25c-.192 0-.384.073-.53.219l-3 3c-.292.292-.292.768 0 1.061l3 3c.283.283.777.283 1.061 0 .292-.292.292-.768 0-1.061L42.061 54l2.47-2.47c.292-.292.292-.768 0-1.061C44.384 50.324 44.192 50.25 44 50.25zM56 50.25c-.192 0-.384.073-.53.219-.292.292-.292.768 0 1.061L57.94 54l-2.47 2.47c-.292.292-.292.768 0 1.061.283.283.777.283 1.061 0l3-3c.292-.292.292-.768 0-1.061l-3-3C56.384 50.324 56.192 50.25 56 50.25zM53.002 47.25c-.284 0-.557.162-.684.436l-6 13c-.172.375-.008.822.367.995.365.168.826-.003.996-.367l6-13c.172-.375.008-.822-.367-.995C53.213 47.272 53.106 47.25 53.002 47.25z"/><path fill="#472b29" d="M44 50.5c.133 0 .259.052.353.147C44.448 50.741 44.5 50.867 44.5 51s-.052.259-.147.353l-2.293 2.293L41.707 54l.354.354 2.293 2.293C44.448 56.741 44.5 56.867 44.5 57s-.052.259-.147.353C44.259 57.448 44.133 57.5 44 57.5s-.259-.052-.353-.147l-3-3C40.552 54.259 40.5 54.133 40.5 54s.052-.259.147-.353l3-3C43.741 50.552 43.867 50.5 44 50.5M44 50c-.256 0-.512.098-.707.293l-3 3c-.391.391-.391 1.023 0 1.414l3 3C43.488 57.902 43.744 58 44 58s.512-.098.707-.293c.391-.391.391-1.023 0-1.414L42.414 54l2.293-2.293c.391-.391.391-1.023 0-1.414C44.512 50.098 44.256 50 44 50L44 50zM56 50.5c.133 0 .259.052.353.147l3 3C59.448 53.741 59.5 53.867 59.5 54s-.052.259-.147.353l-3 3C56.259 57.448 56.133 57.5 56 57.5s-.259-.052-.353-.147C55.552 57.259 55.5 57.133 55.5 57s.052-.259.147-.353l2.293-2.293L58.293 54l-.354-.354-2.293-2.293C55.552 51.259 55.5 51.133 55.5 51s.052-.259.147-.353C55.741 50.552 55.867 50.5 56 50.5M56 50c-.256 0-.512.098-.707.293-.391.391-.391 1.023 0 1.414L57.586 54l-2.293 2.293c-.391.391-.391 1.023 0 1.414C55.488 57.902 55.744 58 56 58s.512-.098.707-.293l3-3c.391-.391.391-1.023 0-1.414l-3-3C56.512 50.098 56.256 50 56 50L56 50zM53.001 47.5L53.001 47.5c.072 0 .142.016.209.046.25.116.36.413.245.664l-6 13C47.373 61.386 47.194 61.5 47 61.5c-.073 0-.143-.015-.209-.046-.25-.116-.36-.413-.245-.664l6-13C52.627 47.614 52.806 47.5 53.001 47.5M53.001 47c-.378 0-.74.215-.909.581l-6 13c-.231.501-.012 1.096.489 1.327C46.717 61.971 46.859 62 47 62c.378 0 .74-.215.909-.581l6-13c.231-.501.012-1.096-.489-1.327C53.283 47.029 53.141 47 53.001 47L53.001 47z"/></g></svg>