<svg xmlns="http://www.w3.org/2000/svg" viewBox="0 0 100 100"><circle cx="14" cy="29" r="2" fill="#ee3e54"/><circle cx="78" cy="13" r="1" fill="#f1bc19"/><circle cx="51" cy="50" r="37" fill="#fce0a2"/><circle cx="84" cy="15" r="4" fill="#f1bc19"/><circle cx="88" cy="24" r="2" fill="#ee3e54"/><circle cx="82" cy="76" r="2" fill="#fbcd59"/><circle cx="16" cy="63" r="4" fill="#fbcd59"/><circle cx="26" cy="87" r="2" fill="#ee3e54"/><circle cx="22.5" cy="55.5" r="2.5" fill="#fff"/><circle cx="22" cy="67" r="1" fill="#f1bc19"/><circle cx="81" cy="34" r="1" fill="#fff"/><path fill="#77cbd2" d="M27.727,63.875c-4.82,0-8.727-4.192-8.727-9.364c0-4.795,3.39-8.442,7.721-8.985 c0.09-0.011,0.154-0.084,0.144-0.173c-0.045-0.379-0.084-0.907-0.107-1.246c-0.395-5.807,3.907-9.364,8.727-9.364 c2.7,0,5.087,1.34,6.686,3.409c0.055,0.072,0.162,0.039,0.169-0.05c0.386-5.366,4.53-9.601,9.63-9.601 c5.355,0,9.697,4.658,9.697,10.404c0,0.839-0.122,1.641-0.303,2.42c-0.017,0.074,0.07,0.12,0.126,0.067 c1.518-1.458,3.233-2.414,5.257-2.414c3.393,0,6.302,2.308,6.463,6.084c0.005,0.108,0.097,0.189,0.206,0.177 C78.271,44.742,83,49.409,83,54.511c0,5.172-3.907,9.364-8.727,9.364s-18.424,0-18.424,0S30.167,63.875,27.727,63.875z"/><path fill="#472b29" d="M74.13,44.97c-0.237,0-0.476,0.012-0.714,0.037c-0.007,0-0.014,0.001-0.021,0.001 c-0.1,0-0.181-0.078-0.186-0.18c-0.161-3.822-3.07-6.159-6.463-6.159c-2.024,0-3.739,0.968-5.257,2.444 c-0.017,0.016-0.036,0.023-0.055,0.023c-0.044,0-0.083-0.038-0.071-0.091c0.18-0.788,0.303-1.6,0.303-2.45 c0-5.817-4.341-10.533-9.697-10.533c-5.1,0-9.244,4.288-9.63,9.72c-0.004,0.056-0.047,0.09-0.092,0.09 c-0.027,0-0.055-0.012-0.076-0.039c-1.599-2.094-3.986-3.451-6.687-3.451c-4.82,0-9.122,3.601-8.727,9.48 c0.023,0.342,0.063,0.878,0.107,1.261c0.01,0.09-0.053,0.164-0.144,0.175C22.39,45.848,19,49.541,19,54.395 c0,5.235,3.907,9.48,8.727,9.48c1.117,0,7.107,0,13.273,0c1.035,0,1.059-1.432,0-1.432H27.727c-4.04,0-7.327-3.61-7.327-8.047 c0-3.97,2.731-7.197,6.494-7.675c0.852-0.108,1.462-0.9,1.361-1.767c-0.042-0.361-0.079-0.867-0.101-1.189 c-0.149-2.225,0.469-4.165,1.789-5.612c1.356-1.486,3.375-2.338,5.541-2.338c2.141,0,4.176,1.057,5.583,2.9 c0.286,0.375,0.716,0.591,1.18,0.591c0.778,0,1.432-0.624,1.489-1.419c0.334-4.705,3.951-8.391,8.234-8.391 c4.575,0,8.297,4.082,8.297,9.101c0,0.656-0.084,1.331-0.266,2.124c-0.103,0.451-0.001,0.917,0.279,1.279 c0.281,0.363,0.702,0.571,1.155,0.571c0.381,0,0.743-0.148,1.019-0.418c1.418-1.379,2.823-2.049,4.293-2.049 c2.342,0,4.926,1.498,5.064,4.788c0.037,0.87,0.733,1.551,1.584,1.551l0.091-0.001l0.07-0.007 c0.189-0.019,0.382-0.029,0.574-0.029c3.839,0,7.469,3.884,7.469,7.992c0,4.437-3.287,8.047-7.327,8.047H45 c-1.071,0-1.078,1.432,0,1.432c4.41,0,26.165,0,29.273,0c4.82,0,8.727-4.244,8.727-9.48C83,49.484,78.725,44.97,74.13,44.97z"/><g><path fill="#472b29" d="M45.938,39.5c-0.008,0-0.016,0-0.024-0.001c-0.138-0.013-0.238-0.135-0.226-0.272 c0.446-4.714,3.009-6.292,4.497-6.812c2.159-0.755,4.393-0.224,5.308,0.724c0.096,0.099,0.093,0.258-0.007,0.354 c-0.099,0.096-0.256,0.093-0.354-0.006c-0.788-0.817-2.842-1.279-4.782-0.6c-1.375,0.481-3.745,1.95-4.164,6.387 C46.174,39.403,46.065,39.5,45.938,39.5z"/></g><g><path fill="#472b29" d="M28.625,59.813c-0.001,0-0.003,0-0.004,0c-1.907-0.034-3.498-0.917-4.48-2.486 c-1.025-1.638-1.171-3.717-0.379-5.425c0.058-0.125,0.208-0.18,0.332-0.122c0.125,0.058,0.18,0.207,0.122,0.332 c-0.722,1.557-0.588,3.453,0.349,4.949c0.89,1.42,2.333,2.22,4.065,2.251c0.138,0.002,0.248,0.116,0.246,0.254 C28.873,59.704,28.761,59.813,28.625,59.813z"/></g><g><path fill="#472b29" d="M25.534,50.365c-0.076,0-0.152-0.035-0.201-0.101c-0.082-0.111-0.059-0.268,0.053-0.35 c1.394-1.031,3.348-1.435,5.674-1.176c-0.597-1.465-0.925-2.833-0.976-4.073c-0.005-0.138,0.102-0.254,0.24-0.26 c0.142-0.01,0.254,0.102,0.26,0.24c0.052,1.29,0.424,2.736,1.104,4.296c0.037,0.083,0.025,0.179-0.03,0.251 c-0.055,0.072-0.146,0.108-0.234,0.096c-2.381-0.344-4.367,0.012-5.74,1.027C25.638,50.349,25.586,50.365,25.534,50.365z"/></g><g><path fill="#472b29" d="M30.537,42.885c-0.021,0-0.043-0.003-0.064-0.008c-0.133-0.036-0.213-0.173-0.177-0.306 c0.357-1.341,1.145-2.405,2.278-3.077c0.118-0.07,0.272-0.031,0.342,0.088c0.071,0.119,0.031,0.272-0.087,0.343 c-1.018,0.604-1.727,1.564-2.049,2.776C30.749,42.811,30.648,42.885,30.537,42.885z"/></g><g><path fill="#472b29" d="M38.563,40.375c-0.055,0-0.11-0.018-0.156-0.055c-1.019-0.816-2.378-1.187-3.723-1.022 c-0.143,0.02-0.262-0.081-0.279-0.218c-0.017-0.137,0.081-0.262,0.217-0.279c1.48-0.184,2.974,0.229,4.097,1.127 c0.108,0.086,0.125,0.244,0.039,0.352C38.708,40.343,38.636,40.375,38.563,40.375z"/></g><g><path fill="#472b29" d="M73.5,59.75h-5c-0.138,0-0.25-0.112-0.25-0.25s0.112-0.25,0.25-0.25h5 c1.977,0,3.825-1.115,4.708-2.84c0.859-1.678,0.629-3.642-0.629-5.389c-0.081-0.112-0.056-0.268,0.057-0.349 c0.11-0.081,0.268-0.056,0.349,0.057c1.373,1.905,1.616,4.058,0.669,5.909C77.685,58.528,75.662,59.75,73.5,59.75z"/></g><g><path fill="#472b29" d="M66.5,59.75h-7c-0.138,0-0.25-0.112-0.25-0.25s0.112-0.25,0.25-0.25h7 c0.138,0,0.25,0.112,0.25,0.25S66.638,59.75,66.5,59.75z"/></g><g><path fill="#472b29" d="M55.5,59.75h-25c-0.138,0-0.25-0.112-0.25-0.25s0.112-0.25,0.25-0.25h25 c0.138,0,0.25,0.112,0.25,0.25S55.638,59.75,55.5,59.75z"/></g><g><path fill="#472b29" d="M56.657,56.657c-0.256,0-0.512-0.098-0.707-0.293L44.636,45.05c-0.391-0.39-0.391-1.024,0-1.414 c0.391-0.391,1.023-0.391,1.414,0L57.364,54.95c0.391,0.39,0.391,1.024,0,1.414C57.168,56.559,56.913,56.657,56.657,56.657z"/></g><g><path fill="#472b29" d="M45.343,56.657c-0.256,0-0.512-0.098-0.707-0.293c-0.391-0.39-0.391-1.024,0-1.414L55.95,43.636 c0.391-0.391,1.023-0.391,1.414,0c0.391,0.39,0.391,1.024,0,1.414L46.05,56.364C45.855,56.559,45.599,56.657,45.343,56.657z"/></g></svg>