<svg xmlns="http://www.w3.org/2000/svg" viewBox="0 0 100 100"><path fill="#f1bc19" d="M77 12A1 1 0 1 0 77 14A1 1 0 1 0 77 12Z"/><path fill="#e4e4f9" d="M50 13A37 37 0 1 0 50 87A37 37 0 1 0 50 13Z"/><path fill="#f1bc19" d="M83 11A4 4 0 1 0 83 19A4 4 0 1 0 83 11Z"/><path fill="#8889b9" d="M87 22A2 2 0 1 0 87 26A2 2 0 1 0 87 22Z"/><path fill="#fbcd59" d="M81 74A2 2 0 1 0 81 78 2 2 0 1 0 81 74zM15 59A4 4 0 1 0 15 67 4 4 0 1 0 15 59z"/><path fill="#8889b9" d="M25 85A2 2 0 1 0 25 89A2 2 0 1 0 25 85Z"/><path fill="#fff" d="M18.5 49A2.5 2.5 0 1 0 18.5 54 2.5 2.5 0 1 0 18.5 49zM79.5 32A1.5 1.5 0 1 0 79.5 35 1.5 1.5 0 1 0 79.5 32z"/><path fill="#fefdef" d="M35,70.3c-4.025,0-7.3-3.274-7.3-7.3V33c0-4.025,3.274-7.3,7.3-7.3h30c4.025,0,7.3,3.274,7.3,7.3 v30c0,4.025-3.274,7.3-7.3,7.3H35z"/><path fill="#472b29" d="M65,26.4c3.639,0,6.6,2.961,6.6,6.6v30c0,3.639-2.961,6.6-6.6,6.6H35c-3.639,0-6.6-2.961-6.6-6.6 V33c0-3.639,2.961-6.6,6.6-6.6H65 M65,25H35c-4.4,0-8,3.6-8,8v30c0,4.4,3.6,8,8,8h30c4.4,0,8-3.6,8-8V33C73,28.6,69.4,25,65,25 L65,25z"/><path fill="#472b29" d="M64.938 32.938h-3.875c-.276 0-.5-.224-.5-.5s.224-.5.5-.5h3.875c.276 0 .5.224.5.5S65.214 32.938 64.938 32.938zM35.001 64.938h-6.938c-.276 0-.5-.224-.5-.5s.224-.5.5-.5h6.938c.276 0 .5.224.5.5S35.278 64.938 35.001 64.938zM72.007 64.938H38.071c-.276 0-.5-.224-.5-.5s.224-.5.5-.5h33.936c.276 0 .5.224.5.5S72.284 64.938 72.007 64.938zM57.95 32.938H28.013c-.276 0-.5-.224-.5-.5s.224-.5.5-.5H57.95c.276 0 .5.224.5.5S58.227 32.938 57.95 32.938zM66.005 38.938H39c-.276 0-.5-.224-.5-.5s.224-.5.5-.5h27.005c.276 0 .5.224.5.5S66.281 38.938 66.005 38.938zM66.005 43.938H39c-.276 0-.5-.224-.5-.5s.224-.5.5-.5h27.005c.276 0 .5.224.5.5S66.281 43.938 66.005 43.938z"/><g><path fill="#472b29" d="M66.005,48.938H39c-0.276,0-0.5-0.224-0.5-0.5s0.224-0.5,0.5-0.5h27.005c0.276,0,0.5,0.224,0.5,0.5 S66.281,48.938,66.005,48.938z"/></g><g><path fill="#472b29" d="M66.005,53.938H39c-0.276,0-0.5-0.224-0.5-0.5s0.224-0.5,0.5-0.5h27.005c0.276,0,0.5,0.224,0.5,0.5 S66.281,53.938,66.005,53.938z"/></g><g><path fill="#472b29" d="M66.005,58.938H39c-0.276,0-0.5-0.224-0.5-0.5s0.224-0.5,0.5-0.5h27.005c0.276,0,0.5,0.224,0.5,0.5 S66.281,58.938,66.005,58.938z"/></g><g><path fill="#472b29" d="M69.938,32.938h-2c-0.276,0-0.5-0.224-0.5-0.5s0.224-0.5,0.5-0.5h2c0.276,0,0.5,0.224,0.5,0.5 S70.214,32.938,69.938,32.938z"/></g><g><path fill="#ee3e54" d="M35.313 28.064A1.265 1.265 0 1 0 35.313 30.594A1.265 1.265 0 1 0 35.313 28.064Z"/><path fill="#472b29" d="M35.313,30.893c-0.862,0-1.564-0.702-1.564-1.564c0-0.863,0.702-1.564,1.564-1.564 s1.564,0.702,1.564,1.564S36.175,30.893,35.313,30.893z M35.313,28.364c-0.532,0-0.965,0.433-0.965,0.965 c0,0.532,0.433,0.965,0.965,0.965s0.965-0.433,0.965-0.965C36.278,28.797,35.845,28.364,35.313,28.364z"/><path fill="#f1bc19" d="M39.739 28.064A1.265 1.265 0 1 0 39.739 30.594A1.265 1.265 0 1 0 39.739 28.064Z"/><path fill="#472b29" d="M39.739,30.893c-0.862,0-1.563-0.702-1.563-1.564c0-0.863,0.701-1.564,1.563-1.564 s1.564,0.702,1.564,1.564C41.303,30.191,40.601,30.893,39.739,30.893z M39.739,28.364c-0.531,0-0.964,0.433-0.964,0.965 c0,0.532,0.433,0.965,0.964,0.965c0.532,0,0.965-0.433,0.965-0.965C40.704,28.797,40.271,28.364,39.739,28.364z"/><g><path fill="#88ae45" d="M44.165 28.064A1.265 1.265 0 1 0 44.165 30.594A1.265 1.265 0 1 0 44.165 28.064Z"/><path fill="#472b29" d="M44.166,30.893c-0.862,0-1.564-0.702-1.564-1.564c0-0.863,0.702-1.564,1.564-1.564 s1.563,0.702,1.563,1.564S45.028,30.893,44.166,30.893z M44.166,28.364c-0.532,0-0.965,0.433-0.965,0.965 c0,0.532,0.433,0.965,0.965,0.965c0.531,0,0.964-0.433,0.964-0.965C45.129,28.797,44.697,28.364,44.166,28.364z"/></g></g><g><path fill="#472b29" d="M54.56,76.04c-0.128,0-0.256-0.049-0.354-0.146c-0.195-0.195-0.195-0.512,0-0.707l2.784-2.785 c0.195-0.195,0.512-0.195,0.707,0s0.195,0.512,0,0.707l-2.784,2.785C54.816,75.992,54.688,76.04,54.56,76.04z"/><path fill="#88ae45" d="M42.689,87.541l-0.131-0.131c-1.058-1.058-1.058-2.79,0-3.848l8.088-8.088 c1.058-1.058,2.79-1.058,3.848,0l0.131,0.131c1.058,1.058,1.058,2.79,0,3.848l-8.088,8.088 C45.479,88.6,43.747,88.6,42.689,87.541z"/><path fill="#472b29" d="M44.613,88.837c-0.824,0-1.649-0.314-2.277-0.942l0,0l-0.131-0.131 c-1.255-1.256-1.255-3.299,0-4.555l8.088-8.088c1.254-1.255,3.298-1.257,4.556,0l0.131,0.131 c0.605,0.605,0.939,1.415,0.939,2.277c0,0.863-0.334,1.672-0.94,2.278l-8.087,8.088C46.263,88.523,45.438,88.837,44.613,88.837z M43.042,87.188c0.865,0.866,2.276,0.864,3.142,0l8.087-8.088c0.418-0.417,0.647-0.975,0.647-1.571 c0-0.595-0.229-1.153-0.647-1.57l-0.131-0.131c-0.866-0.866-2.274-0.866-3.141,0l-8.088,8.088c-0.865,0.866-0.865,2.275,0,3.141 L43.042,87.188z"/><path fill="#d1dc82" d="M54.264,75.825c-0.923-0.923-2.374-0.984-3.223-0.135l-0.154,0.154l0.336,0.336l3.022,3.022 l0.154-0.154C55.248,78.199,55.187,76.749,54.264,75.825z"/><path fill="#472b29" d="M54.249,79.982c-0.096,0-0.192-0.037-0.266-0.11l-3.58-3.581c-0.146-0.146-0.146-0.384,0-0.53 c0.146-0.146,0.385-0.146,0.531,0l3.58,3.581c0.146,0.146,0.146,0.384,0,0.53C54.442,79.945,54.345,79.982,54.249,79.982z"/><path fill="#77cbd2" d="M66.122 54.129999999999995A9.847 9.847 0 1 0 66.122 73.824A9.847 9.847 0 1 0 66.122 54.129999999999995Z" opacity=".74"/><path fill="#fdfcef" d="M74.85,55.249c-4.834-4.834-12.672-4.834-17.506,0s-4.834,12.672,0,17.506 c4.834,4.834,12.672,4.834,17.506,0C79.685,67.921,79.685,60.083,74.85,55.249z M73.06,70.965c-3.845,3.845-10.08,3.845-13.925,0 s-3.845-10.08,0-13.925s10.08-3.845,13.925,0S76.905,67.12,73.06,70.965z"/><path fill="#472b29" d="M66.097 76.874c-3.298 0-6.596-1.255-9.106-3.766-5.021-5.021-5.021-13.191 0-18.213 5.022-5.022 13.192-5.02 18.213 0 5.021 5.021 5.021 13.191 0 18.213C72.693 75.619 69.395 76.874 66.097 76.874zM66.097 52.13c-3.042 0-6.083 1.157-8.399 3.473-4.632 4.631-4.632 12.167 0 16.799 4.633 4.631 12.168 4.629 16.799 0 4.632-4.631 4.632-12.167 0-16.799C72.181 53.288 69.139 52.13 66.097 52.13zM66.097 74.349c-2.764 0-5.361-1.076-7.315-3.03s-3.03-4.552-3.03-7.316 1.076-5.362 3.03-7.316c1.954-1.955 4.552-3.031 7.315-3.031s5.362 1.076 7.316 3.031c1.954 1.954 3.031 4.552 3.031 7.316s-1.077 5.362-3.031 7.316S68.861 74.349 66.097 74.349zM66.097 54.656c-2.496 0-4.844.972-6.608 2.738-1.766 1.765-2.737 4.112-2.737 6.609s.972 4.844 2.737 6.609 4.112 2.737 6.608 2.737c2.497 0 4.844-.972 6.609-2.737s2.738-4.112 2.738-6.609-.973-4.844-2.738-6.609C70.941 55.628 68.594 54.656 66.097 54.656zM43.991 88.385c-.053 0-.102-.034-.119-.087l-1.377-4.28c-.021-.065.016-.136.081-.157.065-.02.136.015.157.081l1.377 4.28c.021.065-.016.136-.081.157C44.016 88.383 44.003 88.385 43.991 88.385zM44.864 88.088c-.054 0-.104-.035-.12-.089l-1.562-5.245c-.02-.066.019-.136.084-.155.071-.021.137.019.156.084l1.562 5.245c.02.066-.019.136-.084.155C44.887 88.087 44.875 88.088 44.864 88.088z"/><g><path fill="#472b29" d="M45.389,86.245c-0.054,0-0.104-0.035-0.12-0.089l-1.307-4.389c-0.02-0.066,0.019-0.136,0.084-0.155 c0.073-0.02,0.137,0.019,0.156,0.084l1.307,4.389c0.02,0.066-0.019,0.136-0.084,0.155C45.413,86.244,45.401,86.245,45.389,86.245z"/></g><g><path fill="#472b29" d="M45.921,84.321c-0.054,0-0.104-0.035-0.12-0.089l-0.921-3.094c-0.02-0.066,0.019-0.136,0.084-0.155 c0.071-0.021,0.137,0.019,0.156,0.084l0.921,3.094c0.02,0.066-0.019,0.136-0.084,0.155C45.945,84.319,45.933,84.321,45.921,84.321 z"/></g></g><g><path fill="#472b29" d="M33.825,40.748l-2.54-2.538c-0.195-0.195-0.195-0.512,0-0.707s0.512-0.195,0.707,0l1.724,1.724 l2.852-3.802c0.166-0.222,0.479-0.267,0.7-0.101c0.221,0.166,0.266,0.479,0.1,0.7L33.825,40.748z"/></g><g><path fill="#472b29" d="M33.825,49.748l-2.54-2.538c-0.195-0.195-0.195-0.512,0-0.707s0.512-0.195,0.707,0l1.724,1.724 l2.852-3.802c0.166-0.221,0.479-0.266,0.7-0.101c0.221,0.166,0.266,0.479,0.1,0.7L33.825,49.748z"/></g><g><path fill="#472b29" d="M33.825,58.748l-2.54-2.538c-0.195-0.195-0.195-0.512,0-0.707s0.512-0.195,0.707,0l1.724,1.724 l2.852-3.802c0.166-0.22,0.479-0.265,0.7-0.101c0.221,0.166,0.266,0.479,0.1,0.7L33.825,58.748z"/></g></svg>